<?xml version="1.0" encoding="UTF-8"?> <svg xmlns:xodm="http://www.corel.com/coreldraw/odm/2003" xmlns="http://www.w3.org/2000/svg" xmlns:xlink="http://www.w3.org/1999/xlink" version="1.1" id="Layer_1" x="0px" y="0px" viewBox="0 0 388.3 166.9" style="enable-background:new 0 0 388.3 166.9;" xml:space="preserve"> <style type="text/css"> .st0{fill-rule:evenodd;clip-rule:evenodd;} .st1{fill-rule:evenodd;clip-rule:evenodd;fill:#01A998;} </style> <g id="Layer_x0020_1"> <g id="_2498746997872"> <g> <path class="st0" d="M0,63.6h17.2v41.4c0,15.5,13.1,24.5,32.3,24.5c10,0,18.5-1.1,23-2l-1-19.6c-1.5,0.8-4.6,1.3-8.1,1.3 c-6.2,0-11.4-3-11.4-10.1V63.5l19.5,0V44H52V17.4l-34.8,9V44H0L0,63.6L0,63.6z"></path> <path class="st0" d="M157.6,127.6h34.8V81.7c0-8.7,3.9-16.2,12.6-16.2c6.6,0,9.5,3.8,9.5,11.9v50.2h34.8V79.3 c0-6.2,2.1-13.8,12.2-13.8c7,0,9.9,3.8,9.9,11.9v50.2H306V67.6c0-18-13.3-25.5-29.6-25.5c-14.3,0-23.6,5.3-30.1,13.9 c-6.2-11.2-16.8-13.9-27.6-13.9c-19.7,0-26.5,11.4-28.4,15.9h-0.4c0-4.6-0.2-10.6-0.8-13.9h-32.7c0.6,2.7,1.2,9.6,1.2,18 L157.6,127.6L157.6,127.6L157.6,127.6z"></path> </g> <path class="st1" d="M66.8,12.9c7.8-9.1,24.6-15.6,39-11.8c25.6,6.6,37,32,33.3,54.8c-2.1,13-7.8,25.8-13.1,37.7 c79.4-43,171-63.9,262.3-78.8C255.1,45.9,194.9,75.5,103.8,136.2c-0.7,0.5-1.6,0.9-2.4,1.2l-22.1-15.5c1.3-9.6,8.9-18.1,13-27.1 c6.9-15.2,12-28.6,11.9-42.4c-0.1-6.8-2.8-15-9.8-12.6c-3.3,1.1-5.2,2.6-8.1,5C79.9,34.1,73.3,23.5,66.8,12.9L66.8,12.9L66.8,12.9 z"></path> <g> <path class="st0" d="M24,144l-6.7,1.8v3.9h-4.4v4.1h4v5.9c0,4.9,2.2,7.1,8,7.1c1.3,0,2.7-0.1,4.3-0.4l-0.1-3.7 c-0.8,0.2-1.4,0.3-1.8,0.3c-2.5,0-3.3-0.9-3.3-3.4v-5.8h5.1v-4.1H24V144L24,144L24,144z"></path> <path class="st0" d="M46.9,156.4h-8.3c0.3-2.3,1.9-3.6,4.1-3.6C44.9,152.8,46.6,154.1,46.9,156.4 C46.9,156.4,46.9,156.4,46.9,156.4z M53.1,158.4c0-5.8-3.8-9.1-10.5-9.1c-6.6,0-10.9,3.3-10.9,8.5c0,5.7,4.4,9.1,12,9.1 c2.7,0,5.2-0.3,7.5-1v-4.1c-2.4,0.9-4.7,1.4-6.8,1.4c-3.5,0-5.6-1.3-5.9-3.4h14.5L53.1,158.4L53.1,158.4L53.1,158.4z"></path> <path class="st0" d="M72,150.1c-2.2-0.6-4.3-0.9-6.3-0.9c-6.3,0-9.7,2.1-9.7,5.5c0,2.5,1.9,3.7,5.8,4.7c2.8,0.7,4.4,0.9,4.4,2.1 c0,0.9-1,1.4-3.2,1.4c-2.1,0-4.3-0.4-6.3-1.3l-0.4,4.3c2.3,0.6,4.8,0.9,7.4,0.9c6.1,0,9.6-2.2,9.6-5.7c0-2.9-1.9-4.1-5.9-5.1 c-2.7-0.6-4.3-0.7-4.3-1.9c0-0.9,0.9-1.4,2.7-1.4c1.8,0,3.7,0.5,5.6,1.3L72,150.1L72,150.1L72,150.1z"></path> <path class="st0" d="M86.1,144l-6.7,1.8v3.9H75v4.1h4v5.9c0,4.9,2.3,7.1,8,7.1c1.3,0,2.7-0.1,4.3-0.4l-0.1-3.7 c-0.8,0.2-1.4,0.3-1.8,0.3c-2.5,0-3.3-0.9-3.3-3.4v-5.8h5.1v-4.1h-5.1L86.1,144L86.1,144L86.1,144z"></path> </g> <g> <path class="st1" d="M119.3,144l-6.7,1.8v3.9h-4.4v4.1h4v5.9c0,4.9,2.2,7.1,8,7.1c1.3,0,2.7-0.1,4.3-0.4l-0.1-3.7 c-0.8,0.2-1.4,0.3-1.8,0.3c-2.5,0-3.3-0.9-3.3-3.4v-5.8h5.1v-4.1h-5.1L119.3,144L119.3,144L119.3,144z"></path> <path class="st1" d="M139,149.2c-7.5,0-11.9,3.3-11.9,8.8c0,5.5,4.4,8.8,11.9,8.8c7.5,0,11.9-3.3,11.9-8.8 C150.9,152.6,146.4,149.2,139,149.2L139,149.2z M139,153.3c2.7,0,4.5,1.8,4.5,4.8c0,3-1.8,4.8-4.5,4.8c-2.6,0-4.5-1.8-4.5-4.8 C134.5,155.1,136.4,153.3,139,153.3z"></path> </g> <g> <path class="st0" d="M187.3,152.8c-1.2-2.2-3.6-3.5-6.8-3.5c-3.2,0-5.6,1.2-7.2,3.4v-3h-6.4v16.7h7v-8c0-2.8,1.6-4.4,3.8-4.4 s3.3,1.2,3.3,3.8v8.6h7v-8c0-2.8,1.6-4.4,3.7-4.4c2.2,0,3.3,1.2,3.3,3.8v8.6h7v-9.8c0-4.8-2.7-7.4-7.5-7.4 C191.4,149.3,188.8,150.6,187.3,152.8L187.3,152.8L187.3,152.8z"></path> <path class="st0" d="M226.4,157.7c0-5.8-3-8.5-9.8-8.5c-3.1,0-5.8,0.4-8.2,1.2l0.1,3.8c2.4-0.9,4.5-1.4,6.1-1.4 c3.3,0,5.1,1,5.1,2.8v0.2h-2.8c-7.4,0-11.1,1.7-11.1,5.5c0,3.2,2.7,5.3,6.9,5.3c3.3,0,5.6-0.8,7.3-2.8l0.2,2.6h6.2L226.4,157.7 L226.4,157.7L226.4,157.7L226.4,157.7z M218.5,158.8h1.2v0.5c0,2.3-1.9,3.8-4.4,3.8c-1.6,0-2.7-0.8-2.7-2 C212.6,159.4,214.5,158.8,218.5,158.8L218.5,158.8L218.5,158.8z"></path> <path class="st0" d="M246.2,149.4c-0.8-0.1-1.6-0.2-2.1-0.2c-2.9,0-4.9,1.2-6.3,3.6v-3.2h-6.3v16.7h7.1v-7.1 c0-3.4,1.8-5.2,5.1-5.2c0.8,0,1.5,0.1,2.2,0.3L246.2,149.4L246.2,149.4L246.2,149.4z"></path> <polygon class="st0" points="249,142 249,166.4 256,166.4 256,157.7 261.6,166.4 270,166.4 262.4,157 269.4,149.7 261.6,149.7 256,156.5 256,142 "></polygon> <path class="st0" d="M286,156.4h-8.3c0.3-2.3,1.9-3.6,4.1-3.6C284,152.8,285.7,154.1,286,156.4L286,156.4z M292.2,158.4 c0-5.8-3.8-9.1-10.5-9.1c-6.6,0-10.9,3.3-10.9,8.5c0,5.7,4.4,9.1,12,9.1c2.7,0,5.2-0.3,7.5-1v-4.1c-2.4,0.9-4.7,1.4-6.8,1.4 c-3.5,0-5.6-1.3-5.9-3.4h14.5L292.2,158.4L292.2,158.4L292.2,158.4z"></path> <path class="st0" d="M304.7,144l-6.7,1.8v3.9h-4.4v4.1h4v5.9c0,4.9,2.3,7.1,8,7.1c1.3,0,2.7-0.1,4.3-0.4l-0.1-3.7 c-0.8,0.2-1.4,0.3-1.8,0.3c-2.5,0-3.3-0.9-3.3-3.4v-5.8h5.1v-4.1h-5.1V144L304.7,144L304.7,144z"></path> </g> <path d="M309,15.3h0.7c0.8,0,1.2,0.3,1.3,1c0.2,0.7,0.3,1.3,0.5,1.6h1.6c-0.2-0.2-0.3-0.6-0.5-1.6c-0.2-0.9-0.5-1.3-1.2-1.6v-0.1 c0.8-0.2,1.3-0.8,1.3-1.5c0-0.6-0.3-1.1-0.6-1.4c-0.5-0.3-1-0.5-2.2-0.5c-1.1,0-1.9,0.1-2.5,0.2v6.4h1.5L309,15.3L309,15.3z M309,12.4c0.2,0,0.4-0.1,0.8-0.1c0.9,0,1.4,0.4,1.4,1c0,0.7-0.7,0.9-1.5,0.9H309L309,12.4L309,12.4z M310,8.1 c-3.7,0-6.6,2.9-6.6,6.4c0,3.6,2.9,6.5,6.6,6.5c3.7,0,6.6-2.9,6.6-6.5C316.6,10.9,313.7,8.1,310,8.1z M310,9.4 c2.9,0,4.9,2.3,4.9,5.2c0,2.8-2.1,5.1-4.9,5.1c-2.9,0-5-2.3-5-5.1C305,11.7,307.1,9.4,310,9.4L310,9.4z"></path> </g> </g> </svg> 